<svg xmlns="http://www.w3.org/2000/svg" width="28" height="28" viewBox="0 0 28 28">
    <g fill="none" fill-rule="evenodd">
        <g>
            <g transform="translate(-87 -155) translate(80 148)">
                <rect width="244.5" height="40.5" x=".25" y=".25" fill="#FFF" stroke="#1877F2" stroke-width=".5" rx="4"/>
                <g>
                    <path fill="#1877F2" d="M28 14c0-7.732-6.268-14-14-14S0 6.268 0 14c0 6.988 5.12 12.779 11.813 13.83v-9.783H8.258V14h3.555v-3.084c0-3.509 2.09-5.447 5.288-5.447 1.531 0 3.133.273 3.133.273v3.446h-1.765c-1.74 0-2.282 1.079-2.282 2.186V14h3.883l-.621 4.047h-3.262v9.783C22.881 26.779 28 20.988 28 14" transform="translate(7 7)"/>
                    <path fill="#FFF" d="M19.45 18.047L20.07 14h-3.883v-2.626c0-1.107.542-2.186 2.282-2.186h1.765V5.742s-1.602-.273-3.134-.273c-3.197 0-5.288 1.938-5.288 5.447V14H8.258v4.047h3.554v9.783c.713.112 1.444.17 2.188.17.744 0 1.474-.058 2.187-.17v-9.783h3.262z" transform="translate(7 7)"/>
                </g>
            </g>
        </g>
    </g>
</svg>
