<svg xmlns="http://www.w3.org/2000/svg" width="20" height="20" viewBox="0 0 20 20">
    <path fill="#FFF" fill-rule="nonzero" d="M14.088 5.969L7.69 12.385l-1.668-2.92a.701.701 0 0 0-.959-.262.701.701 0 0 0-.261.96l2.125 3.72a.704.704 0 0 0 1.125.133l.008-.008 7.021-7.043a.703.703 0 0 0-.002-.994.697.697 0 0 0-.992-.002zM10 0C4.477 0 0 4.477 0 10s4.477 10 10 10 10-4.477 10-10S15.523 0 10 0zm6.076 16.076a8.55 8.55 0 0 1-2.732 1.842 8.511 8.511 0 0 1-3.344.676 8.544 8.544 0 0 1-6.076-2.516 8.55 8.55 0 0 1-1.842-2.732A8.528 8.528 0 0 1 1.406 10a8.544 8.544 0 0 1 2.516-6.076 8.55 8.55 0 0 1 2.732-1.842A8.528 8.528 0 0 1 10 1.406a8.544 8.544 0 0 1 6.076 2.516 8.55 8.55 0 0 1 1.842 2.732c.45 1.06.676 2.186.676 3.346a8.544 8.544 0 0 1-2.518 6.076z"/>
</svg>
