<svg xmlns="http://www.w3.org/2000/svg" width="40" height="41" viewBox="0 0 40 41">
    <defs>
        <filter id="xzwhsfuq4a" width="103.3%" height="119%" x="-1.6%" y="-9.5%" filterUnits="objectBoundingBox">
            <feOffset dy="1" in="SourceAlpha" result="shadowOffsetOuter1"/>
            <feGaussianBlur in="shadowOffsetOuter1" result="shadowBlurOuter1" stdDeviation=".5"/>
            <feColorMatrix in="shadowBlurOuter1" result="shadowMatrixOuter1" values="0 0 0 0 0.6 0 0 0 0 0.6 0 0 0 0 0.6 0 0 0 1 0"/>
            <feMerge>
                <feMergeNode in="shadowMatrixOuter1"/>
                <feMergeNode in="SourceGraphic"/>
            </feMerge>
        </filter>
    </defs>
    <g fill="none" fill-rule="evenodd">
        <g>
            <g filter="url(#xzwhsfuq4a)" transform="translate(-448 -147) translate(447 147)">
                <rect width="245" height="42" fill="#FFF" rx="2"/>
                <g>
                    <g transform="translate(1 1)">
                        <g fill="#FFF">
                            <rect width="40" height="40" rx="2"/>
                        </g>
                        <rect width="40" height="40" rx="2"/>
                        <rect width="40" height="40" rx="2"/>
                        <rect width="40" height="40" rx="2"/>
                    </g>
                    <g>
                        <path fill="#4285F4" fill-rule="nonzero" d="M17.64 9.205c0-.639-.057-1.252-.164-1.841H9v3.481h4.844c-.209 1.125-.843 2.078-1.796 2.716v2.259h2.908c1.702-1.567 2.684-3.875 2.684-6.615z" transform="translate(1 1) translate(11 11)"/>
                        <path fill="#34A853" fill-rule="nonzero" d="M9 18c2.43 0 4.467-.806 5.956-2.18l-2.908-2.259c-.806.54-1.837.86-3.048.86-2.344 0-4.328-1.584-5.036-3.711H.957v2.332C2.438 15.983 5.482 18 9 18z" transform="translate(1 1) translate(11 11)"/>
                        <path fill="#FBBC05" fill-rule="nonzero" d="M3.964 10.71c-.18-.54-.282-1.117-.282-1.71s.102-1.17.282-1.71V4.958H.957C.347 6.173 0 7.548 0 9s.348 2.827.957 4.042l3.007-2.332z" transform="translate(1 1) translate(11 11)"/>
                        <path fill="#EA4335" fill-rule="nonzero" d="M9 3.58c1.321 0 2.508.454 3.44 1.345l2.582-2.58C13.463.891 11.426 0 9 0 5.482 0 2.438 2.017.957 4.958L3.964 7.29C4.672 5.163 6.656 3.58 9 3.58z" transform="translate(1 1) translate(11 11)"/>
                        <path d="M0 0L18 0 18 18 0 18z" transform="translate(1 1) translate(11 11)"/>
                    </g>
                </g>
            </g>
        </g>
    </g>
</svg>
