<svg xmlns="http://www.w3.org/2000/svg" xmlns:xlink="http://www.w3.org/1999/xlink" width="33" height="32" viewBox="0 0 33 32">
    <defs>
        <path id="f4gok6lcfa" d="M0 0L32.579 0 32.579 31.774 0 31.774z"/>
    </defs>
    <g fill="none" fill-rule="evenodd">
        <g>
            <g transform="translate(-820 -88) translate(814 83)">
                <rect width="245" height="42" fill="#000" rx="2"/>
                <g transform="translate(6 5)">
                    <mask id="bni6xaszvb" fill="#fff">
                        <use xlink:href="#f4gok6lcfa"/>
                    </mask>
                    <path fill="#FFF" d="M16.288 0C7.293 0 0 7.293 0 16.29c0 7.196 4.667 13.302 11.14 15.456.816.15 1.112-.353 1.112-.785 0-.387-.014-1.41-.022-2.77-4.53.984-5.487-2.184-5.487-2.184-.74-1.882-1.809-2.383-1.809-2.383-1.479-1.01.112-.99.112-.99 1.635.115 2.495 1.678 2.495 1.678 1.454 2.49 3.813 1.771 4.742 1.354.148-1.053.568-1.77 1.034-2.178-3.617-.41-7.42-1.808-7.42-8.05 0-1.778.635-3.232 1.676-4.37-.168-.413-.727-2.069.16-4.312 0 0 1.368-.438 4.48 1.67 1.299-.362 2.693-.542 4.078-.549 1.383.007 2.776.187 4.078.55 3.11-2.109 4.474-1.67 4.474-1.67.89 2.242.33 3.898.163 4.31 1.043 1.14 1.674 2.593 1.674 4.371 0 6.257-3.808 7.634-7.436 8.038.584.503 1.105 1.497 1.105 3.016 0 2.178-.02 3.935-.02 4.47 0 .434.293.941 1.12.782 6.466-2.158 11.13-8.26 11.13-15.454C32.58 7.293 25.286 0 16.29 0" mask="url(#bni6xaszvb)"/>
                </g>
            </g>
        </g>
    </g>
</svg>
